<?xml version="1.0" encoding="utf-8"?>
<!-- Svg Vector Icons : http://www.onlinewebfonts.com/icon -->
<!DOCTYPE svg PUBLIC "-//W3C//DTD SVG 1.1//EN" "http://www.w3.org/Graphics/SVG/1.1/DTD/svg11.dtd">
<svg version="1.1" xmlns="http://www.w3.org/2000/svg" xmlns:xlink="http://www.w3.org/1999/xlink" x="0px" y="0px" viewBox="0 0 1000 1000" enable-background="new 0 0 1000 1000" xml:space="preserve" fill="#DB7093">
<metadata> Svg Vector Icons : http://www.onlinewebfonts.com/icon </metadata>
<g><g><path d="M115,920h157.5V762.5H115V920z M307.5,920h175V762.5h-175V920z M115,727.5h157.5v-175H115V727.5z M307.5,727.5h175v-175h-175V727.5z M115,517.5h157.5V360H115V517.5z M517.5,920h175V762.5h-175V920z M307.5,517.5h175V360h-175V517.5z M727.5,920H885V762.5H727.5V920z M517.5,727.5h175v-175h-175V727.5z M325,255V97.5c0-4.7-1.7-8.8-5.2-12.3s-7.6-5.2-12.3-5.2h-35c-4.7,0-8.8,1.7-12.3,5.2c-3.5,3.5-5.2,7.6-5.2,12.3V255c0,4.7,1.7,8.8,5.2,12.3c3.5,3.5,7.6,5.2,12.3,5.2h35c4.7,0,8.8-1.7,12.3-5.2C323.3,263.8,325,259.7,325,255z M727.5,727.5H885v-175H727.5V727.5z M517.5,517.5h175V360h-175V517.5z M727.5,517.5H885V360H727.5V517.5z M745,255V97.5c0-4.7-1.7-8.8-5.2-12.3c-3.5-3.5-7.6-5.2-12.3-5.2h-35c-4.7,0-8.8,1.7-12.3,5.2c-3.5,3.5-5.2,7.6-5.2,12.3V255c0,4.7,1.7,8.8,5.2,12.3c3.5,3.5,7.6,5.2,12.3,5.2h35c4.7,0,8.8-1.7,12.3-5.2C743.3,263.8,745,259.7,745,255z M955,220v700c0,19-6.9,35.4-20.8,49.2C920.4,983.1,904,990,885,990H115c-19,0-35.4-6.9-49.2-20.8C51.9,955.4,45,939,45,920V220c0-19,6.9-35.4,20.8-49.2C79.6,156.9,96,150,115,150h70V97.5c0-24.1,8.6-44.7,25.7-61.8C227.8,18.6,248.4,10,272.5,10h35c24.1,0,44.7,8.6,61.8,25.7C386.4,52.8,395,73.4,395,97.5V150h210V97.5c0-24.1,8.6-44.7,25.7-61.8C647.8,18.6,668.4,10,692.5,10h35c24.1,0,44.7,8.6,61.8,25.7C806.4,52.8,815,73.4,815,97.5V150h70c19,0,35.4,6.9,49.2,20.8C948.1,184.6,955,201,955,220L955,220z"/></g></g>
</svg>