<?xml version="1.0" encoding="utf-8"?>
<!-- Svg Vector Icons : http://www.onlinewebfonts.com/icon -->
<!DOCTYPE svg PUBLIC "-//W3C//DTD SVG 1.1//EN" "http://www.w3.org/Graphics/SVG/1.1/DTD/svg11.dtd">
<svg version="1.1" xmlns="http://www.w3.org/2000/svg" xmlns:xlink="http://www.w3.org/1999/xlink" x="0px" y="0px" viewBox="0 0 1000 1000" enable-background="new 0 0 1000 1000" xml:space="preserve" fill="#696969" width="15px">
<metadata> Svg Vector Icons : http://www.onlinewebfonts.com/icon </metadata>
<g><path d="M862.4,143.9l-314.1-35.3V54.5c0-24.7-19.9-44.5-44.5-44.5c-24.7,0-44.5,19.9-44.5,44.5v44L147.4,63.2c-24.7-2.5-46.5,14.8-49.3,39.5c-2.8,24.4,14.8,46.5,39.2,49.3l715.2,80.7c1.7,0.3,3.4,0.3,5,0.3c22.4,0,41.7-16.8,44.3-39.5C904.4,168.9,886.8,146.7,862.4,143.9L862.4,143.9z"/><path d="M821.8,281.8H178c-12.6,0-24.9,5.3-33.3,15.1c-8.4,9.5-12.6,22.1-11.2,34.7l71.4,618.9c2.5,22.7,21.6,39.5,44.3,39.5h500.9c22.7,0,41.7-16.8,44.3-39.5l71.4-618.9c1.4-12.6-2.5-25.2-11.2-34.7C846.5,287.4,834.4,281.8,821.8,281.8L821.8,281.8z M289.2,900.6l-61.1-529.8h113.2l33.1,529.8H289.2z M540.8,900.6h-77.3l-33.1-529.5h148.5L540.8,900.6L540.8,900.6z M710.3,900.6h-80.1l38.4-529.5h102.8L710.3,900.6L710.3,900.6z"/></g>
</svg>