<?xml version="1.0" encoding="utf-8"?>
<!-- Svg Vector Icons : http://www.onlinewebfonts.com/icon -->
<!DOCTYPE svg PUBLIC "-//W3C//DTD SVG 1.1//EN" "http://www.w3.org/Graphics/SVG/1.1/DTD/svg11.dtd">
<svg version="1.1" xmlns="http://www.w3.org/2000/svg" xmlns:xlink="http://www.w3.org/1999/xlink" x="0px" y="0px" viewBox="0 0 1000 1000" enable-background="new 0 0 1000 1000" xml:space="preserve">
<metadata> Svg Vector Icons : http://www.onlinewebfonts.com/icon </metadata>
<g><path d="M739.8,126.2"/><path d="M682,175c114.7,0,208,93.3,208,208c0,71-29.3,107.6-60.4,146.3l-1.8,2l-257.3,260C550,811.7,527.4,825,500,825s-50-13.3-70.4-33.6L172.2,531.3C143.5,500.2,110,450,110,383c0-114.7,93.3-208,208-208c53.8,0,104.9,20.5,143.8,57.7l38.5,38.3c15.2-15.4,34.7-35.2,38.5-38.7C577.5,195.4,628.4,175,682,175 M682,75c-66.1,0-129.4,20.9-182,59.5C447.5,95.9,384.2,75,318,75C148.2,75,10,213.2,10,383c0,78.6,30.7,153.3,88.7,216.1l1.2,1.3l1.2,1.2l257.5,260.1l0.2,0.2l0.2,0.2c18.6,18.5,37.6,32.6,58.2,43c26.2,13.2,54,19.9,82.8,19.9c28.8,0,56.7-6.7,82.9-19.9c20.7-10.4,39.7-24.5,58.3-43.1l0.2-0.2l0.2-0.2l257.3-260l1.7-1.7l1.6-1.8l1.8-2l1.8-2.1l1.7-2.2C942.4,548.5,990,489.2,990,383C990,213.2,851.8,75,682,75L682,75z"/></g>
</svg>