<?xml version="1.0" encoding="UTF-8"?>
<svg xmlns="http://www.w3.org/2000/svg" xmlns:xlink="http://www.w3.org/1999/xlink" width="25px" height="25px" viewBox="0 0 25 25" version="1.1">
<g id="surface1">
<path style=" stroke:none;fill-rule:nonzero;fill:rgb(0%,0%,0%);fill-opacity:1;" d="M 21.664062 23.144531 C 21.679688 23.085938 21.683594 23.019531 21.683594 22.953125 L 21.683594 16.269531 C 21.683594 15.144531 20.753906 14.234375 19.609375 14.234375 L 19.464844 14.234375 C 19.25 14.234375 19.042969 14.265625 18.847656 14.320312 C 18.589844 13.484375 17.796875 12.875 16.859375 12.875 L 16.710938 12.875 C 16.503906 12.875 16.296875 12.90625 16.105469 12.960938 C 15.859375 12.105469 15.058594 11.476562 14.109375 11.476562 L 13.960938 11.476562 C 13.777344 11.476562 13.601562 11.5 13.433594 11.542969 L 13.433594 8.128906 C 13.433594 7.003906 12.5 6.09375 11.355469 6.09375 L 11.210938 6.09375 C 10.066406 6.09375 9.132812 7.003906 9.132812 8.128906 L 9.132812 17.574219 L 8.28125 16.746094 C 7.5 15.988281 6.140625 15.992188 5.367188 16.746094 L 5.257812 16.847656 C 4.863281 17.234375 4.640625 17.746094 4.640625 18.296875 C 4.640625 18.847656 4.863281 19.359375 5.226562 19.710938 L 9.246094 24.125 C 9.589844 24.523438 10.089844 24.75 10.621094 24.75 L 19.875 24.75 C 20.804688 24.75 21.570312 24.054688 21.664062 23.144531 Z M 10.394531 23.109375 L 6.324219 18.648438 C 6.226562 18.554688 6.175781 18.429688 6.175781 18.296875 C 6.175781 18.167969 6.226562 18.042969 6.324219 17.949219 L 6.433594 17.847656 C 6.535156 17.746094 6.675781 17.691406 6.824219 17.691406 C 6.976562 17.691406 7.117188 17.746094 7.21875 17.851562 L 9.371094 19.9375 C 9.589844 20.148438 9.917969 20.210938 10.203125 20.09375 C 10.484375 19.972656 10.671875 19.695312 10.671875 19.386719 L 10.671875 8.128906 C 10.671875 7.851562 10.914062 7.625 11.214844 7.625 L 11.359375 7.625 C 11.660156 7.625 11.90625 7.851562 11.90625 8.128906 L 11.90625 13.320312 C 11.90625 13.71875 12.210938 14.054688 12.609375 14.082031 C 13.007812 14.117188 13.363281 13.832031 13.425781 13.4375 C 13.464844 13.191406 13.695312 13.007812 13.960938 13.007812 L 14.109375 13.007812 C 14.410156 13.007812 14.65625 13.234375 14.65625 13.511719 L 14.65625 14.71875 C 14.65625 15.117188 14.960938 15.449219 15.359375 15.480469 C 15.765625 15.507812 16.117188 15.234375 16.175781 14.835938 C 16.214844 14.59375 16.445312 14.40625 16.714844 14.40625 L 16.863281 14.40625 C 17.164062 14.40625 17.40625 14.632812 17.40625 14.914062 L 17.40625 16.074219 C 17.40625 16.476562 17.714844 16.808594 18.113281 16.835938 C 18.519531 16.867188 18.867188 16.589844 18.929688 16.195312 C 18.96875 15.949219 19.195312 15.761719 19.46875 15.761719 L 19.617188 15.761719 C 19.914062 15.761719 20.160156 15.992188 20.160156 16.265625 L 20.160156 22.828125 C 20.148438 22.875 20.144531 22.925781 20.144531 22.976562 C 20.144531 23.109375 20.023438 23.214844 19.875 23.214844 L 10.621094 23.214844 C 10.535156 23.21875 10.460938 23.183594 10.394531 23.109375 Z M 10.394531 23.109375 "/>
<path style=" stroke:none;fill-rule:nonzero;fill:rgb(0%,0%,0%);fill-opacity:1;" d="M 3.3125 7.335938 C 3.3125 7.757812 3.65625 8.101562 4.078125 8.101562 L 6.640625 8.101562 C 7.0625 8.101562 7.40625 7.757812 7.40625 7.335938 C 7.40625 6.914062 7.0625 6.570312 6.640625 6.570312 L 4.078125 6.570312 C 3.65625 6.570312 3.3125 6.914062 3.3125 7.335938 Z M 3.3125 7.335938 "/>
<path style=" stroke:none;fill-rule:nonzero;fill:rgb(0%,0%,0%);fill-opacity:1;" d="M 12.078125 3.503906 L 12.078125 1.015625 C 12.078125 0.59375 11.734375 0.25 11.3125 0.25 C 10.890625 0.25 10.546875 0.59375 10.546875 1.015625 L 10.546875 3.503906 C 10.546875 3.925781 10.890625 4.265625 11.3125 4.265625 C 11.734375 4.265625 12.078125 3.925781 12.078125 3.503906 Z M 12.078125 3.503906 "/>
<path style=" stroke:none;fill-rule:nonzero;fill:rgb(0%,0%,0%);fill-opacity:1;" d="M 8.457031 5.574219 C 8.460938 5.574219 8.46875 5.574219 8.472656 5.574219 C 8.894531 5.574219 9.238281 5.234375 9.238281 4.808594 C 9.238281 4.546875 9.109375 4.316406 8.90625 4.179688 L 7.179688 2.5 C 6.878906 2.203125 6.390625 2.210938 6.097656 2.515625 C 5.804688 2.816406 5.808594 3.304688 6.113281 3.597656 L 7.925781 5.355469 C 8.074219 5.503906 8.265625 5.574219 8.457031 5.574219 Z M 8.457031 5.574219 "/>
<path style=" stroke:none;fill-rule:nonzero;fill:rgb(0%,0%,0%);fill-opacity:1;" d="M 15.152344 7.335938 C 15.152344 7.757812 15.496094 8.101562 15.917969 8.101562 L 18.480469 8.101562 C 18.902344 8.101562 19.246094 7.757812 19.246094 7.335938 C 19.246094 6.914062 18.902344 6.570312 18.480469 6.570312 L 15.917969 6.570312 C 15.496094 6.570312 15.152344 6.914062 15.152344 7.335938 Z M 15.152344 7.335938 "/>
<path style=" stroke:none;fill-rule:nonzero;fill:rgb(0%,0%,0%);fill-opacity:1;" d="M 15.378906 2.5 L 13.566406 4.257812 C 13.261719 4.554688 13.253906 5.039062 13.550781 5.339844 C 13.699219 5.496094 13.898438 5.570312 14.101562 5.570312 C 14.292969 5.570312 14.484375 5.5 14.632812 5.359375 L 16.445312 3.597656 C 16.746094 3.304688 16.753906 2.816406 16.460938 2.515625 C 16.167969 2.214844 15.683594 2.203125 15.378906 2.5 Z M 15.378906 2.5 "/>
</g>
</svg>
